<svg id="Capa_1" enable-background="new 0 0 512 512" height="40" viewBox="0 0 512 512" width="40" xmlns="http://www.w3.org/2000/svg"><g><path d="m463.302 391.456c4.609-4.518 7.336-10.759 7.336-17.505v-133.234c0-6.675-2.771-13.147-7.603-17.756-4.9-4.675-11.327-7.074-18.114-6.754-13.099.618-23.359 11.596-23.359 24.992v72.79c-2.456-2.239-5.187-3.911-8.135-4.978-.387-.14-.778-.258-1.169-.377v-108.096c10.898-3.496 21.149-9.54 29.784-18.174 29.017-29.017 29.017-76.231 0-105.249-8.635-8.634-18.886-14.678-29.784-18.174v-34.948c.001-13.23-10.763-23.993-23.992-23.993h-270c-13.229 0-23.993 10.763-23.993 23.993v215.985l-7.5-12.15c-5.736-9.291-17.079-13.696-27.581-10.716-10.503 2.98-17.838 12.688-17.838 23.605v133.233c0 6.844 2.819 13.04 7.354 17.495-5.501 5.243-8.939 12.631-8.939 20.812v70.979c0 15.861 12.903 28.764 28.765 28.764h264.269c4.143 0 7.5-3.358 7.5-7.5s-3.357-7.5-7.5-7.5h-264.27c-7.59 0-13.765-6.175-13.765-13.764v-70.979c0-7.59 6.175-13.765 13.765-13.765h374.933c7.59 0 13.765 6.175 13.765 13.765v70.979c0 7.589-6.175 13.764-13.765 13.764h-73.638c-4.143 0-7.5 3.358-7.5 7.5s3.357 7.5 7.5 7.5h73.638c15.861 0 28.765-12.903 28.765-28.764v-70.979c0-8.176-3.434-15.559-8.929-20.801zm-316.757-207.107c18.507-15.602 39.636-33.409 49.966-42.113.92-.775 2.264-.783 3.196-.019l57.209 47-32.818 26.962h-8.99c-13.53 0-24.538 11.008-24.538 24.538v3.007l-17.898 14.705v-17.712c0-13.53-11.008-24.538-24.538-24.538-.534 0-1.063.023-1.589.057zm85.602 113.447h47.111c5.26 0 9.538 4.279 9.538 9.538s-4.278 9.538-9.538 9.538h-47.111c-4.143 0-7.5 3.358-7.5 7.5v32.541c0 4.142 3.357 7.5 7.5 7.5h65.204c5.26 0 9.538 4.279 9.538 9.538s-4.278 9.538-9.538 9.538h-82.242c-5.26 0-9.538-4.279-9.538-9.538v-133.234c0-5.259 4.278-9.538 9.538-9.538h82.242c5.26 0 9.538 4.279 9.538 9.538s-4.278 9.538-9.538 9.538h-65.204c-4.143 0-7.5 3.358-7.5 7.5v32.541c0 4.142 3.357 7.5 7.5 7.5zm71.163 14.402h36.009v48.827h-21.123c-4.334-6.965-12.056-11.613-20.845-11.613h-57.704v-17.541h39.611c11.865.001 21.789-8.465 24.052-19.673zm-130.638 48.827v-48.827h17.898v48.827zm17.899-63.827h-17.898v-19.356l17.898-14.705zm-17.989 78.827h18.083c.221 2.627.851 5.139 1.837 7.467h-21.785c.997-2.345 1.641-4.858 1.865-7.467zm149.213 0h17.654c.249 2.602.888 5.118 1.878 7.467h-21.369c.986-2.328 1.615-4.84 1.837-7.467zm101.915-38.498c2.135 2.174 5.372 2.842 8.19 1.688 2.819-1.153 4.662-3.896 4.662-6.942v-91.074c0-5.283 4.067-9.773 9.066-10.009 2.615-.127 5.148.807 7.054 2.624 1.906 1.819 2.956 4.27 2.956 6.903v133.233c0 3.891-2.327 7.357-5.923 8.827-3.606 1.472-7.697.629-10.421-2.145l-28.965-29.505c-1.411-1.437-3.34-2.246-5.353-2.246-2.014 0-3.942.81-5.353 2.246l-28.959 29.502c-1.811 1.843-4.229 2.858-6.813 2.858-1.71 0-3.407-.469-4.911-1.356-2.853-1.683-4.624-4.959-4.624-8.55v-86.473c0-4.142-3.357-7.5-7.5-7.5s-7.5 3.358-7.5 7.5v10.089h-37.723c-3.866-8.486-12.421-14.402-22.338-14.402h-39.611v-17.541h57.704c13.53 0 24.538-11.008 24.538-24.538s-11.008-24.538-24.538-24.538h-49.624l69.052-56.731c.931-.765 2.277-.757 3.198.02l1.953 1.646c3.57 7.699 8.524 14.909 14.865 21.249 6.87 6.869 14.766 12.092 23.192 15.709v18.408c-4.882.766-9.401 2.986-13.065 6.481-4.831 4.609-7.603 11.081-7.603 17.756v9.365c0 4.142 3.357 7.5 7.5 7.5s7.5-3.358 7.5-7.5v-9.365c0-2.633 1.05-5.084 2.956-6.903 1.904-1.817 4.391-2.753 7.054-2.624 4.999.236 9.066 4.726 9.066 10.009v91.073c0 3.046 1.843 5.79 4.662 6.942 2.821 1.153 6.057.484 8.19-1.688l11.924-12.146c2.651-2.703 6.542-3.569 10.155-2.263 1.256.455 2.519 1.305 3.651 2.459zm-2.628 45.965h-32.206l16.102-16.404zm-23.823-74.695c-3.245 1.071-6.278 2.809-8.864 5.178v-72.776c0-9.734-5.42-18.187-13.408-22.321v-16.158c4.761.934 9.596 1.406 14.432 1.406 2.618 0 5.235-.15 7.841-.424v105.095zm34.177-137.04c-23.167 23.167-60.867 23.168-84.034 0-23.169-23.169-23.169-60.867 0-84.036 11.585-11.585 26.799-17.376 42.018-17.376 15.214 0 30.435 5.793 42.017 17.376 23.168 23.17 23.168 60.867-.001 84.036zm-322.163 92.248v-240.012c0-4.959 4.034-8.993 8.993-8.993h270c4.959 0 8.993 4.034 8.993 8.993v31.784c-7.42-.779-14.934-.458-22.272.982v-7.817c0-7.167-5.83-12.998-12.997-12.998h-217.448c-7.167 0-12.997 5.831-12.997 12.998v26.457c0 4.142 3.357 7.5 7.5 7.5s7.5-3.358 7.5-7.5v-24.455h213.441v10.463c-8.427 3.617-16.323 8.839-23.192 15.708-18.147 18.147-24.944 43.411-20.393 66.89-3.266.368-6.453 1.641-9.144 3.852l-38.527 31.653-59.503-48.885c-6.521-5.355-15.934-5.295-22.383.139-8.561 7.215-24.542 20.683-40.3 33.966v-52.306c0-4.142-3.357-7.5-7.5-7.5s-7.5 3.358-7.5 7.5v110.231c-4.883 4.488-7.949 10.923-7.949 18.062v46.765l-14.336-23.225c.004-.084.014-.166.014-.252zm-52.919-23.288c0-4.244 2.852-8.017 6.934-9.176 4.082-1.158 8.492.554 10.722 4.166l50.705 82.144c1.762 2.854 5.207 4.191 8.43 3.276 3.226-.916 5.452-3.862 5.452-7.215v-73.194c0-5.259 4.278-9.538 9.538-9.538s9.538 4.279 9.538 9.538v33.559.018 99.656c0 4.244-2.852 8.017-6.932 9.175-.853.242-1.729.364-2.606.364-3.282 0-6.393-1.735-8.117-4.529l-50.705-82.144c-1.391-2.253-3.829-3.561-6.382-3.561-.68 0-1.369.093-2.048.285-3.226.916-5.452 3.862-5.452 7.215v73.194c0 5.259-4.278 9.538-9.538 9.538s-9.538-4.279-9.538-9.538v-133.233zm68.833 142.775h-36.688c1.243-2.935 1.931-6.159 1.931-9.542v-46.765z"/><path d="m367.446 439.168c0-11.148-9.07-20.219-20.219-20.219s-20.219 9.07-20.219 20.219v15.771c0 11.149 9.07 20.219 20.219 20.219s20.219-9.07 20.219-20.219zm-15 15.771c0 2.878-2.341 5.219-5.219 5.219s-5.219-2.341-5.219-5.219v-15.771c0-2.877 2.341-5.219 5.219-5.219s5.219 2.341 5.219 5.219z"/><path d="m292.931 475.159c4.143 0 7.5-3.358 7.5-7.5v-33.709h5.219c4.143 0 7.5-3.358 7.5-7.5s-3.357-7.5-7.5-7.5h-25.438c-4.143 0-7.5 3.358-7.5 7.5s3.357 7.5 7.5 7.5h5.219v33.709c0 4.142 3.357 7.5 7.5 7.5z"/><path d="m394.672 452.975c4.143 0 7.5-3.358 7.5-7.5v-19.025c0-4.142-3.357-7.5-7.5-7.5s-7.5 3.358-7.5 7.5v19.025c0 4.142 3.358 7.5 7.5 7.5z"/><path d="m387.172 467.659c0 4.142 3.357 7.5 7.5 7.5s7.5-3.358 7.5-7.5v-.277c0-4.142-3.357-7.5-7.5-7.5s-7.5 3.358-7.5 7.5z"/><path d="m218.416 439.168v15.771c0 11.149 9.07 20.219 20.219 20.219s20.219-9.07 20.219-20.219v-15.771c0-11.148-9.07-20.219-20.219-20.219s-20.219 9.071-20.219 20.219zm25.438 0v15.771c0 2.878-2.341 5.219-5.219 5.219s-5.219-2.341-5.219-5.219v-15.771c0-2.877 2.341-5.219 5.219-5.219s5.219 2.342 5.219 5.219z"/><path d="m196.045 475.159c4.143 0 7.5-3.358 7.5-7.5v-41.209c0-4.142-3.357-7.5-7.5-7.5s-7.5 3.358-7.5 7.5v13.104h-10.438v-13.104c0-4.142-3.357-7.5-7.5-7.5s-7.5 3.358-7.5 7.5v41.209c0 4.142 3.357 7.5 7.5 7.5s7.5-3.358 7.5-7.5v-13.105h10.438v13.105c0 4.142 3.358 7.5 7.5 7.5z"/><path d="m117.324 418.949c-4.143 0-7.5 3.358-7.5 7.5v41.209c0 4.142 3.357 7.5 7.5 7.5s7.5-3.358 7.5-7.5v-9.943h6.055c10.688 0 19.384-8.695 19.384-19.383s-8.695-19.383-19.384-19.383zm17.939 19.384c0 2.417-1.967 4.383-4.384 4.383h-6.055v-8.767h6.055c2.417 0 4.384 1.967 4.384 4.384z"/><path d="m366.948 100.434v6.834h-8.945c-8.015 0-14.534 6.52-14.534 14.535v15.872c0 8.015 6.52 14.535 14.534 14.535h8.945v6.834c0 8.014 6.52 14.534 14.534 14.534h15.872c8.015 0 14.534-6.52 14.534-14.534v-6.834h8.945c8.015 0 14.534-6.52 14.534-14.535v-15.872c0-8.015-6.52-14.535-14.534-14.535h-8.945v-6.834c0-8.014-6.52-14.534-14.534-14.534h-15.872c-8.014 0-14.534 6.52-14.534 14.534zm15 .466h14.94v13.869c0 4.142 3.357 7.5 7.5 7.5h15.979v14.941h-15.979c-4.143 0-7.5 3.358-7.5 7.5v13.869h-14.94v-13.869c0-4.142-3.357-7.5-7.5-7.5h-15.979v-14.941h15.979c4.143 0 7.5-3.358 7.5-7.5z"/></g></svg>